<svg xmlns="http://www.w3.org/2000/svg" width="148.502" height="36.477" viewBox="0 0 148.502 36.477">
  <g id="Group_3432" data-name="Group 3432" transform="translate(-648.473 -913.459)">
    <g id="Group_3430" data-name="Group 3430" transform="translate(697.193 917.19)">
      <path id="Path_3455" data-name="Path 3455" d="M884.013,965.666a8.4,8.4,0,0,1,.647-3.27,8.134,8.134,0,0,1,1.841-2.711,8.79,8.79,0,0,1,2.9-1.85,10.106,10.106,0,0,1,3.8-.686,9.05,9.05,0,0,1,3.416.558,12.4,12.4,0,0,1,2.122,1.069,1.145,1.145,0,0,1,.58.813,1.525,1.525,0,0,1-.315,1.005l-.431.638a1.166,1.166,0,0,1-.812.59,1.973,1.973,0,0,1-1.045-.239,7.149,7.149,0,0,0-1.36-.67,5.342,5.342,0,0,0-1.923-.319,5.486,5.486,0,0,0-2.122.4,4.767,4.767,0,0,0-1.625,1.084,4.884,4.884,0,0,0-1.028,1.6,5.415,5.415,0,0,0,0,3.908,4.881,4.881,0,0,0,1.045,1.627,4.972,4.972,0,0,0,1.658,1.116,6.112,6.112,0,0,0,4.427,0,9.018,9.018,0,0,0,1.559-.829q1.26-.67,1.89.414l.332.606a1.2,1.2,0,0,1-.365,1.786,10.426,10.426,0,0,1-.961.606,9.5,9.5,0,0,1-1.327.606,11.261,11.261,0,0,1-1.691.479,10.03,10.03,0,0,1-2.023.191,10.312,10.312,0,0,1-3.8-.67,8.712,8.712,0,0,1-2.9-1.818,7.953,7.953,0,0,1-1.841-2.7A8.559,8.559,0,0,1,884.013,965.666Z" transform="translate(-884.013 -951.15)" fill="#fff"/>
      <path id="Path_3456" data-name="Path 3456" d="M963.789,965.666a8.106,8.106,0,0,1,2.719-6.125,9.415,9.415,0,0,1,2.951-1.755,10.557,10.557,0,0,1,7.229,0,9.625,9.625,0,0,1,2.968,1.755,8,8,0,0,1,2.006,2.7,8.461,8.461,0,0,1,0,6.875,8.2,8.2,0,0,1-2.006,2.7,9.211,9.211,0,0,1-2.968,1.755,10.815,10.815,0,0,1-7.229,0,9.016,9.016,0,0,1-2.951-1.755,8.291,8.291,0,0,1-1.99-2.7A8.039,8.039,0,0,1,963.789,965.666Zm4.278,0a5.194,5.194,0,0,0,.4,2.074,4.961,4.961,0,0,0,1.077,1.595,4.781,4.781,0,0,0,1.592,1.037,5.312,5.312,0,0,0,3.88,0,4.974,4.974,0,0,0,1.608-1.037,4.835,4.835,0,0,0,1.094-1.595,5.56,5.56,0,0,0,0-4.131A4.8,4.8,0,0,0,976.622,962a4.982,4.982,0,0,0-1.608-1.037,5.314,5.314,0,0,0-3.88,0A4.788,4.788,0,0,0,969.542,962a4.93,4.93,0,0,0-1.077,1.611A5.228,5.228,0,0,0,968.067,965.666Z" transform="translate(-946.744 -951.15)" fill="#fff"/>
      <path id="Path_3457" data-name="Path 3457" d="M1059.085,943.592a10.287,10.287,0,0,1,.564-3.509,7.817,7.817,0,0,1,1.592-2.68,7.112,7.112,0,0,1,2.421-1.723,7.652,7.652,0,0,1,3.084-.606,6.5,6.5,0,0,1,2.338.367,5.859,5.859,0,0,1,1.509.813,4.963,4.963,0,0,1,1.094,1.149h.066a1.011,1.011,0,0,1-.033-.255,1.207,1.207,0,0,1-.033-.3v-6.428a1.193,1.193,0,0,1,1.36-1.34h1.459a1.193,1.193,0,0,1,1.36,1.34v19.97a1.193,1.193,0,0,1-1.36,1.34h-1.227q-1.36,0-1.359-1.212v-.638a1.571,1.571,0,0,1,.033-.415.343.343,0,0,1,.033-.159h-.066a5.249,5.249,0,0,1-1.194,1.4,6.128,6.128,0,0,1-4.112,1.4,7.559,7.559,0,0,1-3.117-.622,6.786,6.786,0,0,1-2.371-1.739,7.8,7.8,0,0,1-1.509-2.7A10.8,10.8,0,0,1,1059.085,943.592Zm4.245.016a5.576,5.576,0,0,0,1.161,3.705,3.789,3.789,0,0,0,3.051,1.383,4.29,4.29,0,0,0,1.592-.3,3.829,3.829,0,0,0,1.359-.922,4.4,4.4,0,0,0,.945-1.59,6.839,6.839,0,0,0,.348-2.306,6.434,6.434,0,0,0-.265-1.844,5.156,5.156,0,0,0-.779-1.59,3.9,3.9,0,0,0-1.31-1.129,3.856,3.856,0,0,0-1.857-.43,4.012,4.012,0,0,0-1.625.334,3.945,3.945,0,0,0-1.343.97,4.772,4.772,0,0,0-.929,1.574A6.148,6.148,0,0,0,1063.33,943.608Z" transform="translate(-1021.679 -929.077)" fill="#fff"/>
      <path id="Path_3458" data-name="Path 3458" d="M1150.966,965.666a9.129,9.129,0,0,1,.63-3.446,8.018,8.018,0,0,1,1.757-2.7,7.779,7.779,0,0,1,2.719-1.755,9.491,9.491,0,0,1,3.482-.622,8.222,8.222,0,0,1,3.2.59,6.676,6.676,0,0,1,2.355,1.611,6.881,6.881,0,0,1,1.442,2.456,9.388,9.388,0,0,1,.5,3.095,1.314,1.314,0,0,1-.414.957,1.416,1.416,0,0,1-1.045.415h-10.313a4.983,4.983,0,0,0,.547,1.946,4.584,4.584,0,0,0,1.127,1.388,4.75,4.75,0,0,0,1.559.845,5.881,5.881,0,0,0,1.84.287,6.009,6.009,0,0,0,2.106-.351,9.84,9.84,0,0,0,1.542-.7,1.758,1.758,0,0,1,1.078-.191,1.253,1.253,0,0,1,.78.638l.4.638a1.172,1.172,0,0,1-.464,1.786,14.076,14.076,0,0,1-2.288,1.069,9.646,9.646,0,0,1-3.449.558,9.977,9.977,0,0,1-3.781-.686,8.627,8.627,0,0,1-2.869-1.85,8.024,8.024,0,0,1-1.807-2.712A8.577,8.577,0,0,1,1150.966,965.666Zm11.905-1.85a3.815,3.815,0,0,0-1.012-2.664,3.267,3.267,0,0,0-2.4-.941,3.844,3.844,0,0,0-2.7.989,4.544,4.544,0,0,0-1.376,2.616Z" transform="translate(-1093.929 -951.15)" fill="#fff"/>
      <path id="Path_3459" data-name="Path 3459" d="M1240.327,932.682q-1.36,0-1.359-1.308v-.957a1.193,1.193,0,0,1,1.359-1.34h1.459q1.393,0,1.393,1.34v.957q0,1.308-1.393,1.308Zm-1.359,4.116a1.193,1.193,0,0,1,1.359-1.34h1.459a1.193,1.193,0,0,1,1.359,1.34v13.59a1.193,1.193,0,0,1-1.359,1.34h-1.459a1.193,1.193,0,0,1-1.359-1.34Z" transform="translate(-1163.128 -929.077)" fill="#fff"/>
      <path id="Path_3460" data-name="Path 3460" d="M1276.526,958.871a1.193,1.193,0,0,1,1.36-1.34h1.293a1.193,1.193,0,0,1,1.36,1.34v.989a2.248,2.248,0,0,1-.017.287,1.689,1.689,0,0,0-.017.223.9.9,0,0,0-.033.224h.066a6.621,6.621,0,0,1,.763-1.117,6.1,6.1,0,0,1,1.227-1.117,7.161,7.161,0,0,1,1.725-.861,6.868,6.868,0,0,1,2.288-.351,6.079,6.079,0,0,1,4.361,1.467q1.542,1.468,1.542,4.722v9.124q0,1.34-1.393,1.34h-1.426q-1.393,0-1.393-1.34v-8.294a4.756,4.756,0,0,0-.531-2.409,2.249,2.249,0,0,0-2.122-.909,4.764,4.764,0,0,0-2.023.415,4.455,4.455,0,0,0-1.525,1.148,5.366,5.366,0,0,0-.978,1.707,6.057,6.057,0,0,0-.348,2.058v6.285a1.193,1.193,0,0,1-1.36,1.34h-1.459a1.193,1.193,0,0,1-1.36-1.34Z" transform="translate(-1192.662 -951.15)" fill="#fff"/>
    </g>
    <g id="Group_3431" data-name="Group 3431" transform="translate(648.975 913.96)">
      <path id="Union_1" data-name="Union 1" d="M17630.832,20030.477a1.847,1.847,0,0,1-1.834-1.84v-.01a1.845,1.845,0,1,1,1.844,1.85Zm7.381,0a1.843,1.843,0,0,1,0-3.686h22.576v-22.576a1.845,1.845,0,0,1,3.689,0v24.416a1.85,1.85,0,0,1-1.846,1.846Zm-9.215-9.215v-24.422a1.847,1.847,0,0,1,1.846-1.84h24.42a1.843,1.843,0,0,1,0,3.686h-22.576v22.576a1.845,1.845,0,1,1-3.689,0Zm17.74,0a8.525,8.525,0,0,1,0-17.051h6.682a1.842,1.842,0,1,1,0,3.684h-6.682a4.844,4.844,0,0,0-4.836,5.018,4.913,4.913,0,0,0,4.951,4.664h6.566a1.843,1.843,0,1,1,0,3.686Zm15.885-22.576a1.851,1.851,0,0,1-1.834-1.846v-.01a1.845,1.845,0,1,1,1.844,1.855Z" transform="translate(-17629 -19995)" fill="#00e5ff" stroke="rgba(0,0,0,0)" stroke-miterlimit="10" stroke-width="1"/>
    </g>
  </g>
</svg>
